<svg width="48" height="48" viewBox="0 0 48 48" fill="none" xmlns="http://www.w3.org/2000/svg">
<path d="M0 9V12H28.5V34.5H19.2656C18.5977 31.9219 16.2773 30 13.5 30C10.7227 30 8.40234 31.9219 7.73438 34.5H6V27H3V37.5H7.73438C8.40234 40.0781 10.7227 42 13.5 42C16.2773 42 18.5977 40.0781 19.2656 37.5H31.7344C32.4023 40.0781 34.7227 42 37.5 42C40.2773 42 42.5977 40.0781 43.2656 37.5H48V25.2656L47.9062 25.0312L44.9062 16.0312L44.5781 15H31.5V9H0ZM1.5 15V18H15V15H1.5ZM31.5 18H42.4219L45 25.6875V34.5H43.2656C42.5977 31.9219 40.2773 30 37.5 30C34.7227 30 32.4023 31.9219 31.7344 34.5H31.5V18ZM3 21V24H12V21H3ZM13.5 33C15.1758 33 16.5 34.3242 16.5 36C16.5 37.6758 15.1758 39 13.5 39C11.8242 39 10.5 37.6758 10.5 36C10.5 34.3242 11.8242 33 13.5 33ZM37.5 33C39.1758 33 40.5 34.3242 40.5 36C40.5 37.6758 39.1758 39 37.5 39C35.8242 39 34.5 37.6758 34.5 36C34.5 34.3242 35.8242 33 37.5 33Z" fill="#D5D5D5"/>
</svg>
