<svg width="24" height="24" viewBox="0 0 24 24" fill="none" xmlns="http://www.w3.org/2000/svg">
<g clip-path="url(#clip0_4_140)">
<path d="M21.15 12L22.85 9.45C22.9285 9.32454 22.9782 9.18322 22.9955 9.03623C23.0128 8.88924 22.9973 8.74025 22.95 8.6C22.907 8.45836 22.8298 8.32951 22.7251 8.22485C22.6205 8.12019 22.4916 8.04296 22.35 8L19.4 6.8L19.15 3.85C19.1455 3.70779 19.1122 3.56798 19.052 3.43906C18.9918 3.31013 18.9061 3.19477 18.8 3.1C18.6785 3.0131 18.5391 2.95452 18.392 2.92857C18.2449 2.90261 18.0939 2.90993 17.95 2.95L14.8 3.6L12.75 1.3C12.5464 1.1102 12.2784 1.00467 12 1.00467C11.7216 1.00467 11.4536 1.1102 11.25 1.3L9.2 3.6L6.05 2.95C5.90611 2.90993 5.75507 2.90261 5.60798 2.92857C5.46089 2.95452 5.32148 3.0131 5.2 3.1C5.09389 3.19477 5.00815 3.31013 4.94799 3.43906C4.88782 3.56798 4.85448 3.70779 4.85 3.85L4.6 6.8L1.65 8C1.50836 8.04296 1.37951 8.12019 1.27485 8.22485C1.17019 8.32951 1.09296 8.45836 1.05 8.6C1.00273 8.74025 0.987176 8.88924 1.00447 9.03623C1.02176 9.18322 1.07147 9.32454 1.15 9.45L2.85 12L1.15 14.55C1.07457 14.6753 1.02753 14.8156 1.01222 14.961C0.996898 15.1065 1.01367 15.2535 1.06134 15.3918C1.10902 15.53 1.18644 15.6561 1.28815 15.7612C1.38985 15.8663 1.51337 15.9478 1.65 16L4.6 17.2L4.85 20.15C4.85448 20.2922 4.88782 20.432 4.94799 20.5609C5.00815 20.6899 5.09389 20.8052 5.2 20.9C5.32148 20.9869 5.46089 21.0455 5.60798 21.0714C5.75507 21.0974 5.90611 21.0901 6.05 21.05L9.2 20.4L11.25 22.65C11.3438 22.7564 11.4593 22.8416 11.5886 22.9C11.7179 22.9584 11.8581 22.9886 12 22.9886C12.1419 22.9886 12.2821 22.9584 12.4114 22.9C12.5407 22.8416 12.6562 22.7564 12.75 22.65L14.8 20.4L17.95 21.05C18.0939 21.0901 18.2449 21.0974 18.392 21.0714C18.5391 21.0455 18.6785 20.9869 18.8 20.9C18.9061 20.8052 18.9918 20.6899 19.052 20.5609C19.1122 20.432 19.1455 20.2922 19.15 20.15L19.4 17.2L22.35 16C22.4866 15.9478 22.6101 15.8663 22.7119 15.7612C22.8136 15.6561 22.891 15.53 22.9387 15.3918C22.9863 15.2535 23.0031 15.1065 22.9878 14.961C22.9725 14.8156 22.9254 14.6753 22.85 14.55L21.15 12ZM9 15.55L6.9 13.95L6.35 13.5H6.3L6.6 14.2L7.45 16.2L6.4 16.6L4.65 12.3L5.7 11.9L7.85 13.5L8.4 13.95C8.31325 13.7275 8.21306 13.5104 8.1 13.3L7.3 11.25L8.35 10.8L10.1 15.1L9 15.55ZM10.65 14.9L8.9 10.55L12.2 9.25L12.55 10.15L10.35 11L10.65 11.8L12.55 11L12.9 11.85L11 12.6L11.35 13.55L13.6 12.65L13.95 13.55L10.65 14.9ZM17.6 12.05L16.3 10.2L15.85 9.45H15.8C15.8835 9.72911 15.9502 10.0129 16 10.3L16.4 12.55L15.35 13L12.4 9.14999L13.5 8.7L14.65 10.35L15.3 11.35C15.2134 10.9704 15.1466 10.5865 15.1 10.2L14.75 8.2L15.75 7.8L16.9 9.5L17.5 10.45C17.5 10.45 17.4 9.75 17.3 9.25L17 7.3L18.05 6.85L18.65 11.65L17.6 12.05Z" fill="#5A0C3D"/>
</g>
<defs>
<clipPath id="clip0_4_140">
<rect width="24" height="24" fill="white"/>
</clipPath>
</defs>
</svg>
