<svg width="49" height="48" viewBox="0 0 49 48" fill="none" xmlns="http://www.w3.org/2000/svg">
<path d="M8.64448 29.3208L5.6045 26.2808C4.3645 25.0408 4.3645 23.0008 5.6045 21.7608L8.64448 18.7208C9.16448 18.2008 9.58448 17.1808 9.58448 16.4608V12.1607C9.58448 10.4007 11.0245 8.96076 12.7845 8.96076H17.0845C17.8045 8.96076 18.8245 8.54082 19.3445 8.02082L22.3845 4.98078C23.6245 3.74078 25.6645 3.74078 26.9045 4.98078L29.9445 8.02082C30.4645 8.54082 31.4845 8.96076 32.2045 8.96076H36.5045C38.2645 8.96076 39.7045 10.4007 39.7045 12.1607V16.4608C39.7045 17.1808 40.1245 18.2008 40.6445 18.7208L43.6845 21.7608C44.9245 23.0008 44.9245 25.0408 43.6845 26.2808L40.6445 29.3208C40.1245 29.8408 39.7045 30.8608 39.7045 31.5808V35.8806C39.7045 37.6406 38.2645 39.0808 36.5045 39.0808H32.2045C31.4845 39.0808 30.4645 39.5008 29.9445 40.0208L26.9045 43.0608C25.6645 44.3008 23.6245 44.3008 22.3845 43.0608L19.3445 40.0208C18.8245 39.5008 17.8045 39.0808 17.0845 39.0808H12.7845C11.0245 39.0808 9.58448 37.6406 9.58448 35.8806V31.5808C9.58448 30.8408 9.16448 29.8208 8.64448 29.3208Z" stroke="#D5D5D5" stroke-width="3" stroke-linecap="round" stroke-linejoin="round"/>
<path d="M18.6667 30L30.6667 18" stroke="#D5D5D5" stroke-width="3" stroke-linecap="round" stroke-linejoin="round"/>
<path d="M29.6557 29H29.6737" stroke="#D5D5D5" stroke-width="4" stroke-linecap="round" stroke-linejoin="round"/>
<path d="M19.6557 19H19.6737" stroke="#D5D5D5" stroke-width="4" stroke-linecap="round" stroke-linejoin="round"/>
</svg>
